<?xml version="1.0" encoding="UTF-8" standalone="no"?>
<!-- Created with Inkscape (http://www.inkscape.org/) -->

<svg
   xmlns:dc="http://purl.org/dc/elements/1.1/"
   xmlns:cc="http://creativecommons.org/ns#"
   xmlns:rdf="http://www.w3.org/1999/02/22-rdf-syntax-ns#"
   xmlns:svg="http://www.w3.org/2000/svg"
   xmlns="http://www.w3.org/2000/svg"
   xmlns:xlink="http://www.w3.org/1999/xlink"
   xmlns:sodipodi="http://sodipodi.sourceforge.net/DTD/sodipodi-0.dtd"
   xmlns:inkscape="http://www.inkscape.org/namespaces/inkscape"
   version="1.0"
   width="20"
   height="20"
   id="svg2408"
   inkscape:version="0.48.3.1 r9886"
   sodipodi:docname="media-playlist-repeat.svg"
   inkscape:export-filename="/home/robert/.gvfs/FTP als auburnplayer auf home.arcor.de/images/loop.png"
   inkscape:export-xdpi="90"
   inkscape:export-ydpi="90">
  <sodipodi:namedview
     pagecolor="#ffffff"
     bordercolor="#666666"
     borderopacity="1"
     objecttolerance="10"
     gridtolerance="10"
     guidetolerance="10"
     inkscape:pageopacity="0"
     inkscape:pageshadow="2"
     inkscape:window-width="1631"
     inkscape:window-height="1026"
     id="namedview139"
     showgrid="true"
     showguides="true"
     inkscape:guide-bbox="true"
     inkscape:zoom="39.333333"
     inkscape:cx="7.7409867"
     inkscape:cy="9.2604737"
     inkscape:window-x="49"
     inkscape:window-y="24"
     inkscape:window-maximized="1"
     inkscape:current-layer="svg2408">
    <inkscape:grid
       type="xygrid"
       id="grid3914"
       empspacing="5"
       visible="true"
       enabled="true"
       snapvisiblegridlinesonly="true" />
  </sodipodi:namedview>
  <defs
     id="defs2410">
    <linearGradient
       x1="45.447727"
       y1="92.539597"
       x2="45.447727"
       y2="7.0165396"
       id="ButtonShadow"
       gradientUnits="userSpaceOnUse"
       gradientTransform="scale(1.0058652,0.994169)">
      <stop
         id="stop3750"
         style="stop-color:#000000;stop-opacity:1"
         offset="0" />
      <stop
         id="stop3752"
         style="stop-color:#000000;stop-opacity:0.58823532"
         offset="1" />
    </linearGradient>
    <linearGradient
       id="linearGradient3737">
      <stop
         id="stop3739"
         style="stop-color:#ffffff;stop-opacity:1"
         offset="0" />
      <stop
         id="stop3741"
         style="stop-color:#ffffff;stop-opacity:0"
         offset="1" />
    </linearGradient>
    <filter
       color-interpolation-filters="sRGB"
       id="filter3174">
      <feGaussianBlur
         id="feGaussianBlur3176"
         stdDeviation="1.71" />
    </filter>
    <linearGradient
       x1="36.357143"
       y1="6"
       x2="36.357143"
       y2="63.893143"
       id="linearGradient3188"
       xlink:href="#linearGradient3737"
       gradientUnits="userSpaceOnUse" />
    <filter
       x="-0.192"
       y="-0.192"
       width="1.3839999"
       height="1.3839999"
       color-interpolation-filters="sRGB"
       id="filter3794">
      <feGaussianBlur
         id="feGaussianBlur3796"
         stdDeviation="5.28" />
    </filter>
    <linearGradient
       x1="48"
       y1="20.220806"
       x2="48"
       y2="138.66119"
       id="linearGradient3613"
       xlink:href="#linearGradient3737"
       gradientUnits="userSpaceOnUse" />
    <radialGradient
       cx="48"
       cy="90.171875"
       r="42"
       fx="48"
       fy="90.171875"
       id="radialGradient3619"
       xlink:href="#linearGradient3737"
       gradientUnits="userSpaceOnUse"
       gradientTransform="matrix(1.1573129,0,0,0.99590774,-7.5510206,0.19713193)" />
    <clipPath
       id="clipPath3613">
      <rect
         width="84"
         height="84"
         rx="6"
         ry="6"
         x="6"
         y="6"
         id="rect3615"
         style="fill:#ffffff;fill-opacity:1;fill-rule:nonzero;stroke:none" />
    </clipPath>
    <linearGradient
       x1="48"
       y1="90"
       x2="48"
       y2="5.9877172"
       id="linearGradient3617"
       xlink:href="#linearGradient4081"
       gradientUnits="userSpaceOnUse" />
    <linearGradient
       x1="45.447727"
       y1="92.539597"
       x2="45.447727"
       y2="7.0165396"
       id="ButtonShadow-0"
       gradientUnits="userSpaceOnUse"
       gradientTransform="matrix(1.0058652,0,0,0.994169,100,0)">
      <stop
         id="stop3750-8"
         style="stop-color:#000000;stop-opacity:1"
         offset="0" />
      <stop
         id="stop3752-5"
         style="stop-color:#000000;stop-opacity:0.58823532"
         offset="1" />
    </linearGradient>
    <linearGradient
       x1="32.251034"
       y1="6.1317081"
       x2="32.251034"
       y2="90.238609"
       id="linearGradient3780"
       xlink:href="#ButtonShadow-0"
       gradientUnits="userSpaceOnUse"
       gradientTransform="matrix(1.0238095,0,0,1.0119048,-1.1428571,-98.071429)" />
    <linearGradient
       x1="32.251034"
       y1="6.1317081"
       x2="32.251034"
       y2="90.238609"
       id="linearGradient3772"
       xlink:href="#ButtonShadow-0"
       gradientUnits="userSpaceOnUse"
       gradientTransform="matrix(1.0238095,0,0,1.0119048,-1.1428571,-98.071429)" />
    <linearGradient
       x1="32.251034"
       y1="6.1317081"
       x2="32.251034"
       y2="90.238609"
       id="linearGradient3725"
       xlink:href="#ButtonShadow-0"
       gradientUnits="userSpaceOnUse"
       gradientTransform="matrix(1.0238095,0,0,1.0119048,-1.1428571,-98.071429)" />
    <linearGradient
       x1="32.251034"
       y1="6.1317081"
       x2="32.251034"
       y2="90.238609"
       id="linearGradient3721"
       xlink:href="#ButtonShadow-0"
       gradientUnits="userSpaceOnUse"
       gradientTransform="translate(0,-97)" />
    <linearGradient
       x1="32.251034"
       y1="6.1317081"
       x2="32.251034"
       y2="90.238609"
       id="linearGradient3026"
       xlink:href="#ButtonShadow-0"
       gradientUnits="userSpaceOnUse"
       gradientTransform="matrix(1.0238095,0,0,1.0119048,-1.1428571,-98.071429)" />
    <linearGradient
       id="linearGradient4081">
      <stop
         id="stop4083"
         style="stop-color:#8c8c8c;stop-opacity:1"
         offset="0" />
      <stop
         id="stop4085"
         style="stop-color:#dcdcdc;stop-opacity:1"
         offset="1" />
    </linearGradient>
    <linearGradient
       id="linearGradient4281-6">
      <stop
         id="stop4283-9"
         style="stop-color:#29241c;stop-opacity:1;"
         offset="0" />
      <stop
         id="stop4285-8"
         style="stop-color:#291f16;stop-opacity:1;"
         offset="1" />
    </linearGradient>
    <clipPath
       id="clipPath4194-1">
      <rect
         width="84"
         height="84"
         rx="6"
         ry="6"
         x="6"
         y="6"
         id="rect4196-1"
         style="fill:#ff00ff;fill-opacity:1;fill-rule:nonzero;stroke:none" />
    </clipPath>
    <linearGradient
       x1="48.233639"
       y1="48.047016"
       x2="126.13924"
       y2="66.232674"
       id="linearGradient4077-0"
       xlink:href="#linearGradient4071-3"
       gradientUnits="userSpaceOnUse" />
    <linearGradient
       id="linearGradient4071-3">
      <stop
         id="stop4073-8"
         style="stop-color:#000000;stop-opacity:1"
         offset="0" />
      <stop
         id="stop4075-4"
         style="stop-color:#000000;stop-opacity:0"
         offset="1" />
    </linearGradient>
    <linearGradient
       x1="48.055065"
       y1="48.031517"
       x2="126.67282"
       y2="62.838562"
       id="linearGradient4069-9"
       xlink:href="#linearGradient4047-2"
       gradientUnits="userSpaceOnUse" />
    <linearGradient
       id="linearGradient4047-2">
      <stop
         id="stop4049-0"
         style="stop-color:#000000;stop-opacity:1"
         offset="0" />
      <stop
         id="stop4051-5"
         style="stop-color:#000000;stop-opacity:0"
         offset="1" />
    </linearGradient>
    <linearGradient
       x1="47.997307"
       y1="48.028725"
       x2="127.05216"
       y2="60.289631"
       id="linearGradient4061-6"
       xlink:href="#linearGradient4047-2"
       gradientUnits="userSpaceOnUse" />
    <linearGradient
       x1="47.99826"
       y1="48.028797"
       x2="127.41583"
       y2="57.664623"
       id="linearGradient4053-2"
       xlink:href="#linearGradient4047-2"
       gradientUnits="userSpaceOnUse" />
    <linearGradient
       x1="48.233643"
       y1="48.04702"
       x2="126.13924"
       y2="66.232674"
       id="linearGradient4145-0"
       xlink:href="#linearGradient4115-2"
       gradientUnits="userSpaceOnUse" />
    <linearGradient
       id="linearGradient4115-2">
      <stop
         id="stop4117-3"
         style="stop-color:#ffffff;stop-opacity:1"
         offset="0" />
      <stop
         id="stop4119-6"
         style="stop-color:#ffffff;stop-opacity:0"
         offset="1" />
    </linearGradient>
    <linearGradient
       x1="48.055069"
       y1="48.031521"
       x2="126.67282"
       y2="62.838566"
       id="linearGradient4137-7"
       xlink:href="#linearGradient4115-2"
       gradientUnits="userSpaceOnUse" />
    <linearGradient
       x1="47.997311"
       y1="48.028728"
       x2="127.05216"
       y2="60.289635"
       id="linearGradient4129-8"
       xlink:href="#linearGradient4115-2"
       gradientUnits="userSpaceOnUse" />
    <linearGradient
       x1="47.998264"
       y1="48.028801"
       x2="127.41583"
       y2="57.664627"
       id="linearGradient4121-6"
       xlink:href="#linearGradient4115-2"
       gradientUnits="userSpaceOnUse" />
    <linearGradient
       x1="48.233639"
       y1="48.047016"
       x2="126.13924"
       y2="66.232674"
       id="linearGradient4089-7"
       xlink:href="#linearGradient4071-3"
       gradientUnits="userSpaceOnUse" />
    <linearGradient
       x1="48.055065"
       y1="48.031517"
       x2="126.67282"
       y2="62.838562"
       id="linearGradient4091-0"
       xlink:href="#linearGradient4047-2"
       gradientUnits="userSpaceOnUse" />
    <linearGradient
       x1="47.997307"
       y1="48.028725"
       x2="127.05216"
       y2="60.289631"
       id="linearGradient4093-5"
       xlink:href="#linearGradient4047-2"
       gradientUnits="userSpaceOnUse" />
    <linearGradient
       x1="47.99826"
       y1="48.028797"
       x2="127.41583"
       y2="57.664623"
       id="linearGradient4095-8"
       xlink:href="#linearGradient4047-2"
       gradientUnits="userSpaceOnUse" />
    <linearGradient
       x1="48.233639"
       y1="48.047016"
       x2="126.13924"
       y2="66.232674"
       id="linearGradient4107-8"
       xlink:href="#linearGradient4071-3"
       gradientUnits="userSpaceOnUse" />
    <linearGradient
       x1="48.055065"
       y1="48.031517"
       x2="126.67282"
       y2="62.838562"
       id="linearGradient4109-3"
       xlink:href="#linearGradient4047-2"
       gradientUnits="userSpaceOnUse" />
    <linearGradient
       x1="47.997307"
       y1="48.028725"
       x2="127.05216"
       y2="60.289631"
       id="linearGradient4111-3"
       xlink:href="#linearGradient4047-2"
       gradientUnits="userSpaceOnUse" />
    <linearGradient
       x1="47.99826"
       y1="48.028797"
       x2="127.41583"
       y2="57.664623"
       id="linearGradient4113-5"
       xlink:href="#linearGradient4047-2"
       gradientUnits="userSpaceOnUse" />
    <linearGradient
       x1="48.233643"
       y1="48.04702"
       x2="126.13924"
       y2="66.232674"
       id="linearGradient4157-8"
       xlink:href="#linearGradient4115-2"
       gradientUnits="userSpaceOnUse" />
    <linearGradient
       x1="48.055069"
       y1="48.031521"
       x2="126.67282"
       y2="62.838566"
       id="linearGradient4159-8"
       xlink:href="#linearGradient4115-2"
       gradientUnits="userSpaceOnUse" />
    <linearGradient
       x1="47.997311"
       y1="48.028728"
       x2="127.05216"
       y2="60.289635"
       id="linearGradient4161-2"
       xlink:href="#linearGradient4115-2"
       gradientUnits="userSpaceOnUse" />
    <linearGradient
       x1="47.998264"
       y1="48.028801"
       x2="127.41583"
       y2="57.664627"
       id="linearGradient4163-3"
       xlink:href="#linearGradient4115-2"
       gradientUnits="userSpaceOnUse" />
    <radialGradient
       cx="48"
       cy="90.171875"
       r="42"
       fx="48"
       fy="90.171875"
       id="radialGradient3619-8"
       xlink:href="#linearGradient3737-6"
       gradientUnits="userSpaceOnUse"
       gradientTransform="matrix(1.1573129,0,0,0.99590774,-7.551021,0.1971319)" />
    <linearGradient
       id="linearGradient3737-6">
      <stop
         id="stop3739-9"
         style="stop-color:#ffffff;stop-opacity:1"
         offset="0" />
      <stop
         id="stop3741-6"
         style="stop-color:#ffffff;stop-opacity:0"
         offset="1" />
    </linearGradient>
    <linearGradient
       x1="36.357143"
       y1="6"
       x2="36.357143"
       y2="63.893143"
       id="linearGradient3047"
       xlink:href="#linearGradient3737-6"
       gradientUnits="userSpaceOnUse" />
    <radialGradient
       cx="48.410488"
       cy="47.59774"
       r="30.640047"
       fx="48.410488"
       fy="47.59774"
       id="radialGradient3814-9"
       xlink:href="#linearGradient3796-9"
       gradientUnits="userSpaceOnUse"
       gradientTransform="matrix(1,0,0,0.98495914,-30,0.71591078)" />
    <linearGradient
       id="linearGradient3796-9">
      <stop
         id="stop3798-4"
         style="stop-color:#ffffff;stop-opacity:0"
         offset="0" />
      <stop
         id="stop3800-9"
         style="stop-color:#ffffff;stop-opacity:1"
         offset="1" />
    </linearGradient>
    <linearGradient
       id="linearGradient3780-6-5">
      <stop
         id="stop3782-4"
         style="stop-color:#000000;stop-opacity:0"
         offset="0" />
      <stop
         id="stop3784-9"
         style="stop-color:#000000;stop-opacity:1"
         offset="1" />
    </linearGradient>
    <radialGradient
       cx="48.265148"
       cy="47.886696"
       r="28.878813"
       fx="48.265148"
       fy="47.886696"
       id="radialGradient5008"
       xlink:href="#linearGradient3780-6-5"
       gradientUnits="userSpaceOnUse"
       gradientTransform="matrix(1,0,0,1.013812,-30,-0.66140908)" />
    <linearGradient
       x1="38"
       y1="28"
       x2="38"
       y2="68"
       id="linearGradient3935"
       xlink:href="#linearGradient4281-6"
       gradientUnits="userSpaceOnUse"
       gradientTransform="translate(-90,0)" />
    <linearGradient
       x1="9.3966265"
       y1="5.5470023"
       x2="9.3966265"
       y2="19.983326"
       id="linearGradient3960"
       xlink:href="#linearGradient4281-6"
       gradientUnits="userSpaceOnUse"
       gradientTransform="matrix(3.3282012,0,0,2.7041634,15,16)" />
    <linearGradient
       inkscape:collect="always"
       xlink:href="#linearGradient4281-6"
       id="linearGradient3123"
       gradientUnits="userSpaceOnUse"
       gradientTransform="matrix(3.3282012,0,0,2.7041634,15,16)"
       x1="9.3966265"
       y1="5.5470023"
       x2="9.3966265"
       y2="19.983326" />
    <linearGradient
       inkscape:collect="always"
       xlink:href="#linearGradient4281-6"
       id="linearGradient3130"
       gradientUnits="userSpaceOnUse"
       gradientTransform="matrix(3.3282012,0,0,2.7041634,15,16)"
       x1="9.3966265"
       y1="5.5470023"
       x2="9.3966265"
       y2="19.983326" />
    <linearGradient
       inkscape:collect="always"
       xlink:href="#linearGradient4281-6"
       id="linearGradient3136"
       gradientUnits="userSpaceOnUse"
       gradientTransform="matrix(1.1787379,0,0,0.99627072,-1.6875,-0.8947367)"
       x1="9.3966265"
       y1="5.5470023"
       x2="9.3966265"
       y2="19.983326" />
    <linearGradient
       inkscape:collect="always"
       xlink:href="#linearGradient4281-6"
       id="linearGradient3912"
       gradientUnits="userSpaceOnUse"
       gradientTransform="matrix(1.1787379,0,0,0.99627072,-1.6875,-0.8947367)"
       x1="9.3966265"
       y1="5.5470023"
       x2="9.3966265"
       y2="19.983326" />
    <linearGradient
       inkscape:collect="always"
       xlink:href="#linearGradient4281-6"
       id="linearGradient3920"
       gradientUnits="userSpaceOnUse"
       gradientTransform="matrix(1.2480754,0,0,1.0674329,-2.3749997,-2.8157899)"
       x1="9.3966265"
       y1="5.5470023"
       x2="9.3966265"
       y2="19.983326" />
  </defs>
  <metadata
     id="metadata2413">
    <rdf:RDF>
      <cc:Work
         rdf:about="">
        <dc:format>image/svg+xml</dc:format>
        <dc:type
           rdf:resource="http://purl.org/dc/dcmitype/StillImage" />
        <dc:title></dc:title>
      </cc:Work>
    </rdf:RDF>
  </metadata>
  <g
     id="layer2"
     style="display:none"
     transform="translate(0,-76)">
    <rect
       width="86"
       height="85"
       rx="6"
       ry="6"
       x="5"
       y="7"
       id="rect3745"
       style="opacity:0.9;fill:url(#ButtonShadow);fill-opacity:1;fill-rule:nonzero;stroke:none;filter:url(#filter3174)" />
  </g>
  <g
     id="layer5"
     style="display:none"
     transform="translate(0,-76)">
    <rect
       width="66"
       height="66"
       rx="12"
       ry="12"
       x="15"
       y="15"
       clip-path="url(#clipPath3613)"
       id="rect3171"
       style="opacity:0.3;fill:url(#linearGradient3613);fill-opacity:1;fill-rule:nonzero;stroke:#ffffff;stroke-width:0.5;stroke-linecap:round;stroke-linejoin:miter;stroke-miterlimit:4;stroke-opacity:1;stroke-dasharray:none;stroke-dashoffset:0;filter:url(#filter3794)" />
  </g>
  <path
     style="fill:url(#linearGradient3920);fill-opacity:1;fill-rule:nonzero;stroke:none"
     id="Symbol"
     inkscape:connector-curvature="0"
     d="m 3.8125002,3.4999997 c -1.558125,0 -2.8125,1.3203948 -2.8125,2.9605264 l 0,6.7105269 c 0,1.640131 1.254375,2.960526 2.8125,2.960526 l 2.0624999,0 c 0.011914,0 0.023381,5.92e-4 0.035156,0 0.3988703,-0.0194 0.7148438,-0.364648 0.7148438,-0.789473 l 0,-0.789474 c 0,-0.437369 -0.3344999,-0.789475 -0.75,-0.789475 l -1.4999999,0 c -0.62325,0 -1.125,-0.528157 -1.125,-1.18421 l 0,-5.5263156 c 0,-0.6560527 0.50175,-1.1842106 1.125,-1.1842106 l 11.2499998,0 c 0.62325,0 1.125,0.5281579 1.125,1.1842106 l 0,5.5263156 c 0,0.656053 -0.50175,1.18421 -1.125,1.18421 -0.393157,-0.01928 -0.706676,0 -1.125,0 l 0,-2.36842 L 8.8750001,14.947369 14.5,18.5 l 0,-2.368421 1.6875,0 c 1.558125,0 2.8125,-1.320395 2.8125,-2.960526 L 19,6.4605261 C 19,4.8203945 17.745625,3.4999997 16.1875,3.4999997 l -12.3749998,0 z" />
  <path
     style="opacity:0.2;fill:#000000;fill-opacity:1;fill-rule:nonzero;stroke:none"
     id="path3985"
     inkscape:connector-curvature="0"
     d="m 3.8125002,3.4999997 c -1.558125,0 -2.8125,1.3203948 -2.8125,2.9605264 l 0,6.7105269 c 0,1.640131 1.254375,2.960526 2.8125,2.960526 l 2.0624999,0 c 0.011914,0 0.023381,5.92e-4 0.035156,0 0.3988703,-0.0194 0.7148438,-0.364648 0.7148438,-0.789473 l 0,-0.789474 c 0,-0.437369 -0.3344999,-0.789475 -0.75,-0.789475 l -1.4999999,0 c -0.62325,0 -1.125,-0.528157 -1.125,-1.18421 l 0,-5.5263156 c 0,-0.6560527 0.50175,-1.1842106 1.125,-1.1842106 l 11.2499998,0 c 0.62325,0 1.125,0.5281579 1.125,1.1842106 l 0,5.5263156 c 0,0.656053 -0.50175,1.18421 -1.125,1.18421 -0.393157,-0.01928 -0.706676,0 -1.125,0 l 0,-2.36842 L 8.8750001,14.947369 14.5,18.5 l 0,-2.368421 1.6875,0 c 1.558125,0 2.8125,-1.320395 2.8125,-2.960526 L 19,6.4605261 C 19,4.8203945 17.745625,3.4999997 16.1875,3.4999997 l -12.3749998,0 z m 0,0.3947369 12.3749998,0 c 1.358708,0 2.437499,1.1355714 2.437499,2.5657895 l 0,6.7105269 c 0,1.430218 -1.078791,2.565789 -2.437499,2.565789 l -1.6875,0 a 0.37159829,0.39115611 0 0 0 -0.375,0.394737 l 0,1.677631 -4.5351561,-2.861841 4.5351561,-2.861843 0,1.677631 a 0.37159829,0.39115611 0 0 0 0.375,0.394737 c 0.429173,0 0.740806,-0.01827 1.113281,0 a 0.37159829,0.39115611 0 0 0 0.01172,0 c 0.822668,0 1.5,-0.712981 1.5,-1.578947 l 0,-5.5263156 c 0,-0.8659662 -0.677332,-1.5789474 -1.5,-1.5789474 l -11.2499997,0 c -0.8226679,0 -1.5,0.7129812 -1.5,1.5789474 l 0,5.5263156 c 0,0.865966 0.6773321,1.578947 1.5,1.578947 l 1.5,0 c 0.2160821,0 0.375,0.167282 0.375,0.394738 l 0,0.789474 c 0,0.220684 -0.1466877,0.38477 -0.3515626,0.394736 a 0.37159829,0.39115611 0 0 0 -0.011719,0 c 0.011501,-5.92e-4 0.011892,0 -0.011719,0 l -2.0624999,0 c -1.3587071,0 -2.4374999,-1.135571 -2.4374999,-2.565789 l 0,-6.7105269 c 0,-1.4302181 1.0787928,-2.5657895 2.4374999,-2.5657895 z" />
  <path
     style="opacity:0.1;fill:#000000;fill-opacity:1;fill-rule:nonzero;stroke:none"
     id="path3981"
     inkscape:connector-curvature="0"
     d="m 3.8125002,3.4999997 c -1.558125,0 -2.8125,1.3203948 -2.8125,2.9605264 l 0,6.7105269 c 0,1.640131 1.254375,2.960526 2.8125,2.960526 l 2.0624999,0 c 0.011914,0 0.023381,5.92e-4 0.035156,0 0.3988703,-0.0194 0.7148438,-0.364648 0.7148438,-0.789473 l 0,-0.789474 c 0,-0.437369 -0.3344999,-0.789475 -0.75,-0.789475 l -1.4999999,0 c -0.62325,0 -1.125,-0.528157 -1.125,-1.18421 l 0,-5.5263156 c 0,-0.6560527 0.50175,-1.1842106 1.125,-1.1842106 l 11.2499998,0 c 0.62325,0 1.125,0.5281579 1.125,1.1842106 l 0,5.5263156 c 0,0.656053 -0.50175,1.18421 -1.125,1.18421 -0.393157,-0.01928 -0.706676,0 -1.125,0 l 0,-2.36842 L 8.8750001,14.947369 14.5,18.5 l 0,-2.368421 1.6875,0 c 1.558125,0 2.8125,-1.320395 2.8125,-2.960526 L 19,6.4605261 C 19,4.8203945 17.745625,3.4999997 16.1875,3.4999997 l -12.3749998,0 z m 0,0.7771381 12.3749998,0 c 1.159289,0 2.074219,0.9630837 2.074219,2.1833883 l 0,6.7105269 c 0,1.220304 -0.91493,2.183388 -2.074219,2.183388 l -1.6875,0 a 0.74319659,0.78231223 0 0 0 -0.738282,0.777138 l 0,0.986842 -3.445312,-2.171052 3.445312,-2.171053 0,0.986841 A 0.74319659,0.78231223 0 0 0 14.5,14.540296 c 0.440023,0 0.738051,-0.01726 1.089844,0 a 0.74319659,0.78231223 0 0 0 0.03515,0 c 1.022085,0 1.863281,-0.885469 1.863281,-1.961349 l 0,-5.5263156 c 0,-1.0758798 -0.841196,-1.9613487 -1.863281,-1.9613487 l -11.25,0 c -1.0220857,0 -1.8632812,0.8854689 -1.8632812,1.9613487 l 0,5.5263156 c 0,1.07588 0.8411955,1.961349 1.8632812,1.961349 l 1.5,0 c 0.016665,0 0.011719,-0.0053 0.011719,0.01233 l 0,0.789473 c 0,0.01654 -8.25e-4,0.01181 -0.011719,0.01233 l -2.0625,0 c -1.1592892,0 -2.0742187,-0.963083 -2.0742187,-2.183388 l 0,-6.7105264 c 0,-1.2203046 0.9149295,-2.1833883 2.0742187,-2.1833883 z" />
  <path
     style="opacity:0.6;fill:#000000;fill-opacity:1;fill-rule:nonzero;stroke:none"
     id="path3962"
     inkscape:connector-curvature="0"
     d="m 3.8125002,3.4999997 c -1.558125,0 -2.8125,1.3203948 -2.8125,2.9605264 l 0,0.3947368 c 0,-1.6401315 1.254375,-2.9605263 2.8125,-2.9605263 l 12.3749998,0 c 1.558125,0 2.8125,1.3203948 2.8125,2.9605263 L 19,6.4605261 C 19,4.8203945 17.745625,3.4999997 16.1875,3.4999997 l -12.3749998,0 z M 14.5,11.394737 8.8750001,14.947369 9.1914064,15.144737 14.5,11.789473 l 0,-0.394736 z m -11.2499998,1.18421 0,0.394737 c 0,0.656053 0.50175,1.18421 1.125,1.18421 l 1.4999999,0 c 0.4155001,0 0.75,0.352106 0.75,0.789475 l 0,-0.394737 c 0,-0.437369 -0.3344999,-0.789475 -0.75,-0.789475 l -1.4999999,0 c -0.62325,0 -1.125,-0.528157 -1.125,-1.18421 z m 13.4999998,0 c 0,0.656053 -0.50175,1.18421 -1.125,1.18421 -0.393157,-0.01928 -0.706676,0 -1.125,0 l 0,0.394737 c 0.418324,0 0.731843,-0.01929 1.125,0 0.62325,0 1.125,-0.528157 1.125,-1.18421 l 0,-0.394737 z" />
</svg>
